<svg width="512" height="512" viewBox="0 0 512 512" fill="none" xmlns="http://www.w3.org/2000/svg">
  <defs>
    <linearGradient id="paint0_linear" x1="256" y1="60" x2="256" y2="460" gradientUnits="userSpaceOnUse">
      <stop stop-color="#00C1DE"/>
      <stop offset="1" stop-color="#00E599"/>
    </linearGradient>
    <filter id="filter0_d" x="0" y="0" width="512" height="512" filterUnits="userSpaceOnUse" color-interpolation-filters="sRGB">
      <feFlood flood-opacity="0" result="BackgroundImageFix"/>
      <feColorMatrix in="SourceAlpha" type="matrix" values="0 0 0 0 0 0 0 0 0 0 0 0 0 0 0 0 0 0 127 0"/>
      <feOffset dy="10"/>
      <feGaussianBlur stdDeviation="15"/>
      <feColorMatrix type="matrix" values="0 0 0 0 0 0 0 0 0 0.756863 0 0 0 0 0.870588 0 0 0 0.3 0"/>
      <feBlend mode="normal" in2="BackgroundImageFix" result="effect1_dropShadow"/>
      <feBlend mode="normal" in="SourceGraphic" in2="effect1_dropShadow" result="shape"/>
    </filter>
  </defs>
  <g filter="url(#filter0_d)">
    <!-- Shield Outline -->
    <path d="M256 60C200 60 120 80 80 100V240C80 340 160 420 256 460C352 420 432 340 432 240V100C392 80 312 60 256 60Z" fill="url(#paint0_linear)" fill-opacity="0.08" stroke="url(#paint0_linear)" stroke-width="18" stroke-linejoin="round"/>
    
    <!-- DNA Strand 1 (Leading) - Shifted Up -->
    <path d="M190 85 C 190 165, 322 165, 322 235 S 190 305, 190 385" stroke="url(#paint0_linear)" stroke-width="28" stroke-linecap="round" stroke-linejoin="round"/>
    
    <!-- DNA Strand 2 (Trailing / Crossing) - Shifted Up -->
    <path d="M322 85 C 322 165, 190 165, 190 235 S 322 305, 322 385" stroke="url(#paint0_linear)" stroke-width="28" stroke-linecap="round" stroke-linejoin="round" opacity="0.65"/>
    
    <!-- DNA Rungs - Shifted Up -->
    <line x1="200" y1="115" x2="312" y2="115" stroke="url(#paint0_linear)" stroke-width="10" stroke-linecap="round" opacity="0.35"/>
    <line x1="235" y1="180" x2="277" y2="180" stroke="url(#paint0_linear)" stroke-width="10" stroke-linecap="round" opacity="0.75"/>
    <line x1="240" y1="235" x2="272" y2="235" stroke="url(#paint0_linear)" stroke-width="12" stroke-linecap="round" opacity="0.95"/>
    <line x1="235" y1="290" x2="277" y2="290" stroke="url(#paint0_linear)" stroke-width="10" stroke-linecap="round" opacity="0.75"/>
    <line x1="200" y1="355" x2="312" y2="355" stroke="url(#paint0_linear)" stroke-width="10" stroke-linecap="round" opacity="0.35"/>
  </g>
</svg>
